<svg xmlns="http://www.w3.org/2000/svg" viewBox="0 0 1000 990"><mask id="mask"><path d="M1000,0H0V718.31H179.2c38.38,142.38,167.45,247.1,320.8,247.1s282.42-104.72,320.8-247.1H1000Z" fill="white"></path></mask><g mask="url(#mask)"><circle cx="500" cy="630.1601" r="332.441995" fill="#85c5e5"></circle><path d="M610,758.72c90.76,0,72,114.24,72.87,241.28H610Z" fill="#FBE8B3"></path><path d="M632.74,831.87,610,870l11.38,130h31.76C653.91,819.73,632.74,831.87,632.74,831.87Z" fill="#EDD494"></path><path d="M233.25,500c0-147.32,119.43-266.75,266.75-266.75S766.75,352.68,766.75,500A266.22,266.22,0,0,1,668.1,707.12q-8.21,6.68-16.94,12.69C591,758,515,758,446.39,751.89c-6.66-1-13.3-2.26-19.89-3.71-26.33-5.8-51.82-14.75-75.37-27.8Q342.4,715,334.2,708.76a199.59,199.59,0,0,1-15.8-13.38q-7.14-6.63-13.79-13.78A265.86,265.86,0,0,1,233.25,500Z" fill="#FBE8B3"></path><path d="M269.61,634.48c.7,1.2,1.39,2.4,2.11,3.58.43.72.88,1.42,1.33,2.14.66,1.07,1.32,2.14,2,3.19.48.76,1,1.5,1.46,2.24.66,1,1.32,2,2,3,.51.76,1,1.52,1.56,2.28.66,1,1.32,1.92,2,2.88.54.77,1.1,1.53,1.65,2.3s1.34,1.85,2,2.77,1.15,1.53,1.73,2.29,1.37,1.8,2.07,2.7,1.19,1.51,1.79,2.26,1.41,1.76,2.12,2.63,1.23,1.49,1.85,2.23,1.44,1.72,2.17,2.57,1.27,1.47,1.91,2.2l2.22,2.5c.65.73,1.31,1.44,2,2.16.86.94,1.73,1.87,2.6,2.79l1.21,1.28c1.29,1.34,2.59,2.68,3.91,4l.26.27c1.29,1.28,2.6,2.55,3.91,3.81l1.58,1.5c.95.89,1.9,1.78,2.86,2.66l1.16,1.06c1,.94,2.09,1.86,3.14,2.78q4.9,4.27,10,8.19,8.19,6.24,16.93,11.62c23.55,13,49,22,75.37,27.8,6.59,1.45,13.23,2.7,19.89,3.71,42.1,3.75,87,5.18,129.28-3.08C508.45,729,185.59,612.74,388.8,257.48h0c-2.72,1.25-5.4,2.54-8.06,3.88l-.59.29c-1.22.61-2.44,1.24-3.65,1.88l-1,.53c-3.76,2-7.48,4.07-11.13,6.23l-.9.53c-1.16.69-2.31,1.39-3.46,2.1l-.87.54q-5.36,3.35-10.55,6.93l-1.08.75c-1.09.76-2.16,1.52-3.23,2.29l-.66.47q-3.27,2.39-6.46,4.84l-.62.48c-1,.78-2,1.58-3,2.39l-1.17.94c-1,.81-2,1.62-3,2.45l0,0c-2.11,1.75-4.19,3.55-6.24,5.37l-1.14,1-2.69,2.45L318,305q-4.28,4-8.37,8.17l-1.38,1.41c-.79.82-1.58,1.64-2.36,2.47-.46.49-.92,1-1.37,1.48q-2.06,2.2-4.06,4.46c-.45.51-.91,1-1.36,1.54-.71.81-1.41,1.63-2.11,2.45l-1.51,1.79c-.68.81-1.36,1.62-2,2.44-.54.66-1.08,1.33-1.61,2-1.07,1.33-2.12,2.66-3.16,4-.54.7-1.08,1.4-1.61,2.11s-1.2,1.59-1.79,2.4-1.07,1.45-1.59,2.18-1.13,1.55-1.68,2.33q-1.42,2-2.8,4.05c-.5.73-1,1.48-1.49,2.22s-1.1,1.66-1.64,2.5l-1.49,2.31-1.68,2.71c-.43.69-.86,1.38-1.28,2.07-.89,1.46-1.75,2.93-2.61,4.4l-1.22,2.16c-.54.95-1.08,1.91-1.61,2.87-.4.73-.8,1.46-1.19,2.19-.64,1.19-1.27,2.39-1.9,3.59l-1.2,2.34c-.64,1.28-1.28,2.55-1.91,3.84-.33.69-.67,1.39-1,2.09-.52,1.09-1,2.19-1.53,3.29-.31.66-.61,1.32-.91,2q-1.11,2.47-2.17,5c-.22.52-.43,1.05-.65,1.57-.53,1.27-1.05,2.54-1.56,3.82-.27.67-.53,1.34-.79,2-.5,1.26-1,2.53-1.45,3.8-.21.55-.42,1.1-.62,1.65q-.94,2.63-1.85,5.26l-.56,1.7q-.66,2-1.29,4l-.6,1.91c-.47,1.54-.93,3.08-1.37,4.63-.1.33-.2.66-.29,1q-.78,2.76-1.5,5.54c-.16.59-.3,1.19-.45,1.78-.35,1.39-.69,2.78-1,4.18l-.42,1.75c-.43,1.9-.85,3.8-1.24,5.71l-.15.77q-.51,2.55-1,5.1c-.11.61-.21,1.21-.32,1.82-.26,1.49-.51,3-.74,4.5-.08.51-.17,1-.24,1.52-.3,1.95-.57,3.91-.83,5.88l-.15,1.3c-.2,1.59-.38,3.19-.55,4.79-.06.6-.13,1.2-.19,1.81-.16,1.68-.31,3.37-.45,5.06,0,.35-.06.69-.08,1q-.22,3-.39,6.05c0,.53,0,1.07-.07,1.6q-.1,2.36-.18,4.71c0,.59,0,1.18,0,1.77,0,2.05-.08,4.11-.08,6.17,0,0,0,.07,0,.1,0,2.22,0,4.42.08,6.62,0,.76.06,1.52.08,2.28.05,1.47.1,2.94.17,4.41,0,.89.11,1.77.16,2.66.08,1.33.15,2.66.25,4,.07,1,.16,1.89.24,2.83.11,1.26.21,2.52.34,3.77.09,1,.21,1.94.31,2.91.14,1.21.27,2.43.42,3.64.12,1,.26,2,.39,2.95.16,1.18.32,2.37.5,3.55.15,1,.31,2,.47,3,.18,1.16.37,2.33.57,3.49.18,1,.36,2,.55,3,.21,1.15.43,2.3.65,3.44s.41,2,.62,3c.24,1.14.48,2.27.74,3.4s.44,2,.68,2.93c.26,1.13.54,2.25.82,3.36s.49,1.95.74,2.91c.3,1.12.6,2.23.91,3.34.26,1,.53,1.92.81,2.87.32,1.11.65,2.21,1,3.31s.58,1.89.88,2.84.7,2.19,1.06,3.28.62,1.87.94,2.8c.38,1.09.76,2.18,1.15,3.27.33.91.65,1.83,1,2.74l1.24,3.27c.35.89.69,1.79,1,2.68.44,1.09.89,2.19,1.34,3.28.36.86.71,1.73,1.08,2.59.47,1.12,1,2.22,1.45,3.33.37.82.73,1.65,1.1,2.47.52,1.16,1.07,2.3,1.6,3.44l1.08,2.3c.61,1.26,1.24,2.5,1.87,3.75.32.63.62,1.27.95,1.9q2.88,5.61,6,11.07C268.88,633.26,269.25,633.87,269.61,634.48Z" fill="#EDD494"></path><path d="M233.25,500c0-147.32,119.43-266.75,266.75-266.75S766.75,352.68,766.75,500A266.22,266.22,0,0,1,668.1,707.12q-8.21,6.68-16.94,12.69C591,758,515,758,446.39,751.89c-6.66-1-13.3-2.26-19.89-3.71-26.33-5.8-51.82-14.75-75.37-27.8Q342.4,715,334.2,708.76a199.59,199.59,0,0,1-15.8-13.38q-7.14-6.63-13.79-13.78A265.86,265.86,0,0,1,233.25,500Z" fill="none" stroke="#592d3d" stroke-miterlimit="10" stroke-width="12px"></path><path d="M386.12,758.72c-90.77,0-72,114.24-72.87,241.28h72.87Z" fill="#FBE8B3"></path><path d="M367.23,831.87,390,870l-11.39,130H346.88C346.07,819.73,367.23,831.87,367.23,831.87Z" fill="#EDD494"></path><path d="M619.47,1070H380.53a13.28,13.28,0,0,1-13.27-13.28V772a13.28,13.28,0,0,1,13.27-13.28H613.76c13.09,0,19,7.66,19,19.88v278.08A13.28,13.28,0,0,1,619.47,1070Z" fill="#FBE8B3"></path><path d="M629.05,766.62a19.33,19.33,0,0,1-2.51-4,17.25,17.25,0,0,0-8.28-3.51,28.88,28.88,0,0,0-4.5-.34H380.53A13.28,13.28,0,0,0,367.26,772c29,10.42,83.29,16.24,132.74,16.24C563.06,788.24,604.38,778.89,629.05,766.62Z" fill="#EDD494"></path><path d="M610,758.72c90.76,0,72,114.24,72.87,241.28H632.74" fill="none" stroke="#592d3d" stroke-linecap="square" stroke-miterlimit="10" stroke-width="12px"></path><path d="M386.12,758.72c-90.77,0-72,114.24-72.87,241.28h50.07" fill="none" stroke="#592d3d" stroke-linecap="square" stroke-miterlimit="10" stroke-width="12px"></path><path d="M380.53,758.82l233.23-.1" fill="none" stroke="#592d3d" stroke-miterlimit="10" stroke-width="12px"></path><path d="M380.53,1070H497.15C388,1070,396.24,838.82,367.26,838.82v217.86A13.28,13.28,0,0,0,380.53,1070Z" fill="#EDD494"></path><path d="M361.26,860.85c-.19-3.67-.11-7.34.05-11s.47-7.35.86-11c.2-1.84.4-3.67.65-5.51s.49-3.67.85-5.51a44.18,44.18,0,0,1,3.59-11,44.18,44.18,0,0,1,3.59,11c.36,1.84.62,3.67.85,5.51s.45,3.67.65,5.51c.38,3.67.68,7.34.85,11s.25,7.34.06,11Z" fill="#592d3d"></path><path d="M632.74,870v8c.26,34,.26,69,0,102.75,0,2.87,0,5.72,0,8.53v67.41A13.28,13.28,0,0,1,619.47,1070H380.53a13.28,13.28,0,0,1-13.27-13.28V998.52c0-2.51,0-5.07,0-7.65-.25-34.87-.25-69.87,0-105.3V860.85" fill="none" stroke="#592d3d" stroke-miterlimit="10" stroke-width="12px"></path><path d="M626.74,870c-.19-4.17-.1-8.35.06-12.53s.47-8.35.85-12.53c.2-2.09.41-4.18.65-6.27s.49-4.17.85-6.26a55.09,55.09,0,0,1,3.59-12.53,55.09,55.09,0,0,1,3.59,12.53c.36,2.09.62,4.18.85,6.26s.45,4.18.65,6.27c.38,4.18.69,8.35.85,12.53s.25,8.36.06,12.53Z" fill="#592d3d"></path><path d="M570.68,842.45C570.9,833,582.9,829,588.9,835a10.61,10.61,0,1,1-15.16,14.85A10.4,10.4,0,0,1,570.68,842.45Z" fill="#592d3d"></path><path d="M408.11,842.15C407.9,834,416.9,830,422.9,833c8,3,8,14,0,19-4,2-8,0-11.75-2.48A10.39,10.39,0,0,1,408.11,842.15Z" fill="#592d3d"></path><path d="M500,831.77a27.13,27.13,0,0,1,1.5,5.84,42.47,42.47,0,0,1,.49,5.84l.3,11.69c.09,3.89.21,7.79.25,11.69l.17,11.67c.23,15.57.22,31.16.28,46.74s.18,31.16,0,46.74c-.09,7.79-.3,15.58-.53,23.37-.1,3.89-.29,7.79-.67,11.68a92.5,92.5,0,0,1-1.77,11.69,92.5,92.5,0,0,1-1.77-11.69c-.38-3.89-.57-7.79-.67-11.68-.23-7.79-.44-15.58-.53-23.37-.2-15.58,0-31.16,0-46.74s0-31.15.18-46.73l.17-11.7.33-11.68.33-11.68a44.11,44.11,0,0,1,.5-5.84A27.13,27.13,0,0,1,500,831.77Z" fill="#EDD494"></path><path d="M425.22,883a18.51,18.51,0,0,1,4.67-1.5,29.75,29.75,0,0,1,4.68-.5l9.35-.33,18.7-.41c12.46-.19,24.91-.24,37.38-.27s24.93-.16,37.39,0c6.23.09,12.46.3,18.7.53,3.11.11,6.23.3,9.34.67a61.34,61.34,0,0,1,9.35,1.78,59.17,59.17,0,0,1-9.35,1.77c-3.11.38-6.23.57-9.34.67-6.24.23-12.47.43-18.7.52-12.46.19-24.92,0-37.39,0s-24.93,0-37.4-.15c-6.23-.06-12.46-.26-18.68-.5l-9.35-.34a29.5,29.5,0,0,1-4.67-.5A18.45,18.45,0,0,1,425.22,883Z" fill="#EDD494"></path><path d="M442.41,914.38a12.51,12.51,0,0,1,3.74-1.11,18.35,18.35,0,0,1,3.62-.15c2.39.1,4.78.16,7.17.21,4.78.11,9.56.15,14.34.17,9.63,0,19.09.08,28.76-.21s19.26-.43,28.88-.39c4.81,0,9.62.13,14.42.24a70.37,70.37,0,0,1,7.23.47,38.17,38.17,0,0,1,7.27,1.53,36.56,36.56,0,0,1-7.16,2,61.08,61.08,0,0,1-7.21.86c-4.82.35-9.64.65-14.45.82-9.64.36-19.27.32-28.88.45-4.81,0-9.61.22-14.48.1s-9.69-.13-14.52-.31-9.68-.58-14.5-1.08c-2.42-.27-4.82-.57-7.23-.9a16.82,16.82,0,0,1-3.57-.84A11.51,11.51,0,0,1,442.41,914.38Z" fill="#EDD494"></path><path d="M438.93,949.87a13.07,13.07,0,0,1,3.82-1.5,19.13,19.13,0,0,1,3.82-.49l7.63-.32c5.09-.18,10.19-.33,15.28-.41C479.66,947,489.84,947,500,947s20.36-.17,30.54,0c5.09.09,10.18.3,15.27.53a72.73,72.73,0,0,1,7.63.66A41.2,41.2,0,0,1,561.1,950a41.25,41.25,0,0,1-7.63,1.77,70.34,70.34,0,0,1-7.64.67c-5.09.23-10.18.44-15.27.53-10.18.2-20.37.06-30.55,0s-20.36-.06-30.54-.25c-5.09-.1-10.19-.28-15.28-.49l-7.63-.37a19.33,19.33,0,0,1-3.82-.5A12.85,12.85,0,0,1,438.93,949.87Z" fill="#EDD494"></path><path d="M677.8,906.35c.21-37.11-1.21-70.07-7.73-95.39C660,785.6,641.89,770.48,610,770.48L632.79,905S655.31,915.24,677.8,906.35Z" fill="#EDD494"></path><path d="M686.41,895.79a20.31,20.31,0,0,1-3.7,2.43" fill="none" stroke="#592d3d" stroke-linecap="square" stroke-miterlimit="10" stroke-width="12px"></path><path d="M326.11,809.88c-6.83,25.57-8,59.13-7.74,97,19.9,8.54,50.42-2.15,50.42-2.15l17.33-132.24C355.25,772.46,336.85,786.36,326.11,809.88Z" fill="#EDD494"></path><path d="M613.76,758.72H559.55v.1a62.78,62.78,0,0,1-1.44,13.39,60.92,60.92,0,0,1-1.74,6.33,50.88,50.88,0,0,1-10,16.83,48.2,48.2,0,0,1-4.5,4.43c-25.17,18.2-65.17,19.2-89.48-.58a51.79,51.79,0,0,1-7.11-7.6,50.84,50.84,0,0,1-9.1-19.41,62.41,62.41,0,0,1-1.07-6.59,61,61,0,0,1-.37-6.8v-.1H380.53A13.28,13.28,0,0,0,367.26,772v284.68A13.28,13.28,0,0,0,380.53,1070H619.47a13.28,13.28,0,0,0,13.27-13.28V778.6C632.74,766.38,626.85,758.72,613.76,758.72Z" fill="#D67070"></path><path d="M610,758.72c63.54,0,73.4,56,73.9,133.17-18.6,11.62-48.91,1.31-48.91,1.31Z" fill="#D67070"></path><path d="M632.74,831.87,610,870l11.38,130h11.61V894.35l17.28,2.89C644.6,825.07,632.74,831.87,632.74,831.87Z" fill="#C46565"></path><path d="M386.12,758.72c-61.78,0-75.83,53.8-76.85,127.66,19,19.86,58,4.58,58,4.58Z" fill="#D67070"></path><path d="M367.23,831.87V891l-17.31,4.31C355.59,825.19,367.23,831.87,367.23,831.87Z" fill="#C46565"></path><path d="M610,758.72c67.41,0,78.45,56.29,78.9,133.78-26.2,12.43-53.91.7-53.91.7" fill="none" stroke="#592d3d" stroke-linecap="square" stroke-miterlimit="10" stroke-width="12px"></path><path d="M386.12,758.72c-66.79,0-80.08,54.7-80.76,130.72C326,904.22,367.22,891,367.22,891" fill="none" stroke="#592d3d" stroke-linecap="square" stroke-miterlimit="10" stroke-width="12px"></path><path d="M380.53,1070H497.15C388,1070,396.24,838.82,367.26,838.82v217.86A13.28,13.28,0,0,0,380.53,1070Z" fill="#C46565"></path><path d="M361.26,860.85c-.19-3.67-.11-7.34.05-11s.47-7.35.86-11c.2-1.84.4-3.67.65-5.51s.49-3.67.85-5.51a44.18,44.18,0,0,1,3.59-11,43.74,43.74,0,0,1,3.58,11c.37,1.84.63,3.67.86,5.51s.45,3.67.65,5.51c.38,3.67.68,7.34.85,11s.25,7.34.06,11Z" fill="#592d3d"></path><path d="M632.74,870v8c.26,34,.26,69,0,102.75,0,2.87,0,5.72,0,8.53v67.41A13.28,13.28,0,0,1,619.47,1070H380.53a13.28,13.28,0,0,1-13.27-13.28V998.52c0-2.51,0-5.07,0-7.65-.25-34.87-.25-69.87,0-105.3V860.85" fill="none" stroke="#592d3d" stroke-miterlimit="10" stroke-width="12px"></path><path d="M626.74,870c-.19-4.17-.1-8.35.06-12.53s.47-8.35.85-12.53c.2-2.09.41-4.18.65-6.27s.49-4.17.86-6.26a54.55,54.55,0,0,1,3.58-12.53,55.09,55.09,0,0,1,3.59,12.53c.36,2.09.62,4.18.85,6.26s.45,4.18.65,6.27c.38,4.18.69,8.35.85,12.53s.25,8.36.06,12.53Z" fill="#592d3d"></path><path d="M380.53,758.82l233.23-.1" fill="none" stroke="#592d3d" stroke-miterlimit="10" stroke-width="12px"></path><path d="M559.55,758.82a62.78,62.78,0,0,1-1.44,13.39,60.92,60.92,0,0,1-1.74,6.33,50.88,50.88,0,0,1-10,16.83,48.2,48.2,0,0,1-4.5,4.43c-25.17,18.2-65.17,19.2-89.48-.58a51.79,51.79,0,0,1-7.11-7.6,50.84,50.84,0,0,1-9.1-19.41,62.41,62.41,0,0,1-1.07-6.59,61,61,0,0,1-.37-6.8" fill="none" stroke="#592d3d" stroke-miterlimit="10" stroke-width="12px"></path><path d="M503.4,828.39a66.61,66.61,0,0,1-18.39,1.1,69.79,69.79,0,0,1-18.2-3.76,61.46,61.46,0,0,1-16.5-8.64l-1.86-1.41c-.61-.48-1.2-1-1.79-1.52a32.24,32.24,0,0,1-3.33-3.28,43.83,43.83,0,0,1-5.38-7.51,87.37,87.37,0,0,0,6.74,6.09c.58.48,1.17.95,1.75,1.4s1.23.82,1.84,1.24,1.22.84,1.85,1.23l1.91,1.16a88.05,88.05,0,0,0,16.1,7.46,106.26,106.26,0,0,0,17.25,4.45A173.7,173.7,0,0,0,503.4,828.39Z" fill="#592d3d"></path><path d="M307.83,892.5a24.54,24.54,0,0,0,3.68,2.77" fill="none" stroke="#592d3d" stroke-linecap="square" stroke-miterlimit="10" stroke-width="12px"></path><path d="M674.7,882.69a19.88,19.88,0,0,1-6.76,2.52,34.83,34.83,0,0,1-7.2.65,40.16,40.16,0,0,1-7.18-.79c-1.18-.21-2.33-.56-3.49-.87s-2.27-.77-3.37-1.24c1.21,0,2.38.18,3.56.28l3.52.29c1.17,0,2.33.2,3.5.21s2.32.11,3.48.12q3.5.06,7-.19A49.31,49.31,0,0,0,674.7,882.69Z" fill="#592d3d"></path><path d="M500,860.85a59.07,59.07,0,1,0,59.07,59.07A59.24,59.24,0,0,0,500,860.85Zm-32.91,92a45.79,45.79,0,0,1-13.5-32.07l46,45.57C487.76,965.91,476,961.69,467.09,952.83Zm43,12.23L454.86,909.8a46.37,46.37,0,0,1,82.69-17.3L531.22,898A39,39,0,0,0,500,882a38.38,38.38,0,0,0-35.86,25.31l48.52,48.52a38.26,38.26,0,0,0,24.47-27.42H516.88v-8.44h29.53A46.54,46.54,0,0,1,510.13,965.06Z" fill="none" stroke="#fff" stroke-width="16px"></path><path d="M500,860.85a59.07,59.07,0,1,0,59.07,59.07A59.24,59.24,0,0,0,500,860.85Zm-32.91,92a45.79,45.79,0,0,1-13.5-32.07l46,45.57C487.76,965.91,476,961.69,467.09,952.83Zm43,12.23L454.86,909.8a46.37,46.37,0,0,1,82.69-17.3L531.22,898A39,39,0,0,0,500,882a38.38,38.38,0,0,0-35.86,25.31l48.52,48.52a38.26,38.26,0,0,0,24.47-27.42H516.88v-8.44h29.53A46.54,46.54,0,0,1,510.13,965.06Z" fill="#663795"></path><path d="M271.4,576.82c-1-28.36,18-52.36,43.28-63.56a62.37,62.37,0,0,1,8.16-2.7,70,70,0,0,1,42.21,2.68A71.67,71.67,0,0,1,374,517.4c29.53,15.88,42.79,53.25,31.36,83.46a61.68,61.68,0,0,1-4.18,8.82,54.68,54.68,0,0,1-17.51,20.83,69.25,69.25,0,0,1-7.85,5c-27.38,13-64.38,9-86.45-11.4a69.35,69.35,0,0,1-6.11-7.47,64.89,64.89,0,0,1-5.57-9.5A55.78,55.78,0,0,1,272,585.39,75.67,75.67,0,0,1,271.4,576.82Z" fill="#EDD494"></path><path d="M269.77,558.47c-1-28.36,18-52.36,43.28-63.56a62.23,62.23,0,0,1,8.15-2.7,70,70,0,0,1,42.22,2.68,71.54,71.54,0,0,1,8.92,4.16c29.53,15.89,42.79,53.25,31.36,83.46a59.6,59.6,0,0,1-4.18,8.82,63.85,63.85,0,0,1-4.71,7.8,64.78,64.78,0,0,1-5.68,7,63.08,63.08,0,0,1-7.12,6.07,68.37,68.37,0,0,1-7.85,5c-27.38,13-64.38,9-86.44-11.4a67.24,67.24,0,0,1-6.11-7.47,65,65,0,0,1-5.58-9.5A55.59,55.59,0,0,1,270.32,567,71.3,71.3,0,0,1,269.77,558.47Z" fill="#ffffff" stroke="#592d3d" stroke-miterlimit="10" stroke-width="12px"></path><circle cx="338.51" cy="559.08" r="12.24" fill="#592d3d"></circle><line x1="715.03" y1="559.08" x2="603.4" y2="559.08" fill="none" stroke="#592d3d" stroke-linecap="round" stroke-miterlimit="10" stroke-width="16px"></line><path d="M627,574.16a114.14,114.14,0,0,1,13.07-1.56c4.36-.3,8.72-.43,13.08-.44s8.71.14,13.07.43a114.34,114.34,0,0,1,13.08,1.57,112.18,112.18,0,0,1-13.08,1.58q-6.54.43-13.07.42t-13.08-.43A112,112,0,0,1,627,574.16Z" fill="#592d3d"></path><path d="M243.89,489.13c5.64,15.83,20.9,24.06,33.4,26.94,13.06-20.24,56.65-28.92,89.37-17.44,27.8,5-10.81-25.57-72.47-9-2.31.85-14.56,2.95-30.28-9.19-2.19-1.69,4.68,13.71,12.5,20C265.06,500.21,263.2,500.22,243.89,489.13Z" fill="#592d3d" fill-rule="evenodd"></path><path d="M443.14,621.86c0-18.9,113.72-16.06,113.72,0a56.86,56.86,0,0,1-113.72,0Z" fill="#592d3d"></path><path d="M495,643c-16.95-1-31.73,6.75-36.65,18.22a56.86,56.86,0,0,0,65.14,12.53A55.39,55.39,0,0,0,530,670.2C529.08,656.09,514.06,644.18,495,643Z" fill="#f28195"></path><path d="M443.14,621.86c0-18.9,113.72-16.06,113.72,0a56.86,56.86,0,0,1-113.72,0Z" fill="none" stroke="#592d3d" stroke-miterlimit="10" stroke-width="6px"></path><path d="M478.12,632.46c.45-.11.63-.16.92-.21l.75-.14c.49-.09,1-.14,1.46-.18a21.54,21.54,0,0,1,2.89-.1,25,25,0,0,1,5.79.81,21.4,21.4,0,0,1,10.35,6.1,20.18,20.18,0,0,1,5.08,10.16A17.27,17.27,0,0,1,504,659.25c-2.07-2.93-3.66-5.56-5.32-7.76a28.41,28.41,0,0,0-2.45-3,14.06,14.06,0,0,0-2.7-2.16,15.48,15.48,0,0,0-6.11-2.09A29.5,29.5,0,0,0,484,644c-.59,0-1.18,0-1.76.05l-.85.06-.39,0c-.1,0-.3,0-.23,0Z" fill="#592d3d"></path><path d="M558.73,399.34c-12.86,24-60,37.44-63.83,31.42-4.29-6.73,37.85-55.32,13.9-106.14" fill="#EDD494"></path><path d="M784,342.85c-5.1-5.1-31.06,1.83-57.19-.23A281,281,0,0,0,505.63,228.28c-2.44-20.48-.75-37.68-2.61-40.1-2.49-3.22-15.49,12.68-18.87,31-11.91-15-32.14-23-32.72-18.8-.38,2.68,7.44,14.09,14.81,29.9-111.6,13.47-203.08,92.26-235.08,197-13.86,11.92-26.86,20.34-27,25.69-.27,9.92,39.31,9.36,56.58,7.82v-.06c60.65-2,179-13.78,236.42-72.89C491.64,406.93,481.47,421,483.43,424c3,4.67,38.32-5.19,50.07-23.24,48,19.59,139.49,43.16,219-16.16l-.22-.43C766.77,372.06,790.35,349.25,784,342.85Z" fill="#D69AC7"></path><path d="M726.85,348.62c-5.4.24-10.66.11-16-.14s-10.59-.67-15.87-1.26c-2.64-.29-5.28-.6-7.91-1s-5.27-.72-7.89-1.23a76.91,76.91,0,0,1-15.58-4.54,91.87,91.87,0,0,1,16-2.62c2.63-.22,5.26-.37,7.89-.48l7.88-.34c5.25-.22,10.49-.34,15.72-.45s10.48-.12,15.62,0Z" fill="#592d3d"></path><path d="M236.6,430s0,.24,0,.39l-.12.53-.28,1.11c-.21.75-.43,1.52-.66,2.29-.47,1.55-1,3.14-1.54,4.75s-1.06,3.28-1.77,5a20.6,20.6,0,0,1-1.38,2.6,17.91,17.91,0,0,1-2.07,2.77,13.14,13.14,0,0,1-3.72-5.47,16.11,16.11,0,0,1-.76-2.9c-.21-1-.31-2-.43-2.95a30,30,0,0,1,0-6,24.44,24.44,0,0,1,.48-3c.12-.5.25-1,.41-1.51a7.84,7.84,0,0,1,.27-.77c.1-.28.18-.48.36-.9Z" fill="#592d3d"></path><path d="M260.74,460.82v-.06c17-.56,38.63-1.9,62.14-4.84,2.63-55.92,22-121.58,65.92-198.44h0L382,254.23A282.15,282.15,0,0,0,231.16,427.31c-13.86,11.92-26.86,20.34-27,25.69C203.89,462.92,243.47,462.36,260.74,460.82Z" fill="#C683B4"></path><path d="M784,342.85c-5.1-5.1-31.06,1.83-57.19-.23A281,281,0,0,0,505.63,228.28c-2.44-20.48-.75-37.68-2.61-40.1-2.49-3.22-15.49,12.68-18.87,31-11.91-15-32.14-23-32.72-18.8-.38,2.68,7.44,14.09,14.81,29.9-111.6,13.47-203.08,92.26-235.08,197-13.86,11.92-26.86,20.34-27,25.69-.27,9.92,39.31,9.36,56.58,7.82v-.06c60.65-2,179-13.78,236.42-72.89C491.64,406.93,481.47,421,483.43,424c3,4.67,38.32-5.19,50.07-23.24,48,19.59,139.49,43.16,219-16.16l-.22-.43C766.77,372.06,790.35,349.25,784,342.85Z" fill="none" stroke="#592d3d" stroke-miterlimit="10" stroke-width="12px"></path><path d="M505.93,244.31a367.42,367.42,0,0,0-42.48,4.94c-3.48.67-6.95,1.41-10.44,2.05s-6.9,1.61-10.35,2.41l-10.26,2.72c-3.4,1-6.77,2.08-10.15,3.12a314.12,314.12,0,0,0-39.43,15.73,348.31,348.31,0,0,0-37.25,21,183.85,183.85,0,0,1,35.08-25.14,219.23,219.23,0,0,1,39.76-17.29c3.48-1,6.94-2.09,10.42-3.05s7-1.82,10.55-2.6,7.1-1.4,10.66-2,7.15-1.07,10.73-1.52A190,190,0,0,1,505.93,244.31Z" fill="#ffffff"></path><path d="M427.29,501.13l-13-4.39-31.2-10.54-37.6-12.71-32.49-11c-5.27-1.78-10.51-3.68-15.81-5.34l-.22-.08a10,10,0,0,0-5.32,19.29l13,4.39,31.2,10.54,37.6,12.7,32.49,11c5.26,1.78,10.5,3.67,15.81,5.34l.22.08a10,10,0,0,0,5.32-19.29Z" fill="#592d3d"></path><path d="M697.18,453.9,684.46,459l-30.54,12.31-36.81,14.84L585.3,499q-7.74,3.12-15.47,6.24l-.22.08c-2.51,1-4.56,2.17-6,4.6a10.18,10.18,0,0,0-1,7.71,10.06,10.06,0,0,0,4.6,6c2.22,1.18,5.26,2,7.7,1l12.73-5.13,30.54-12.31L655,492.33l31.81-12.82c5.15-2.08,10.32-4.15,15.47-6.24l.22-.09c2.51-1,4.56-2.17,6-4.59a10,10,0,0,0-3.59-13.69c-2.22-1.17-5.27-2-7.71-1Z" fill="#592d3d"></path><g transform="scale(1)" style="transform-origin: center center;"><path d="M765.63,495.43s.3-2.94.8-8.24C759.75,345.82,643,233.25,500,233.25c-147.32,0-266.75,119.43-266.75,266.75,0,7.28.31,14.49.89,21.63,12.11-39.32,161.32-77.95,298.44-133.08C631.75,452.24,765.63,495.43,765.63,495.43Z" opacity="0.15"></path><path d="M747.94,163.66l0,0C684.65,74.76,266,93.83,204.16,155.69c-66.94,66.94,29.18,351,29.18,351,0-41.1,160.33-82.31,303.37-139.83,99.17,63.69,228.92,108.54,228.92,108.54S793.59,209.32,747.94,163.66Z" fill="#D67070"></path><path d="M610.06,159.09c-36.6-4-184.31-1.44-322.45,25.65A481,481,0,0,0,235,197.59c-4.25,1.37-8.49,2.76-12.62,4.33s-8.24,3.18-12.18,5a112.44,112.44,0,0,0-11.34,5.93c-3.54,2.16-10.85,8.81-13.51,11.39l-7.3-15.56a69.81,69.81,0,0,1,12.33-9.59,116.58,116.58,0,0,1,13-6.93,217.66,217.66,0,0,1,26.74-10.11,460.64,460.64,0,0,1,54.55-12.9c18.3-3.27,36.69-5.71,55.1-7.7s35.8-7.94,54.26-8.88C494.59,148.61,592.19,154.62,610.06,159.09Z" fill="#C46565"></path><path d="M188.17,320.14c3.47-1.42,6.8-2.75,10.2-4.07s6.78-2.61,10.18-3.87c6.79-2.57,13.62-5,20.45-7.36q20.52-7.09,41.26-13.47c6.91-2.14,13.82-4.25,20.78-6.22l10.42-3c3.47-1,6.94-2,10.44-2.93l20.94-5.59,21-5.25C382,261.7,484.59,232.18,513.37,230c-7,1.8-168.2,54.82-176.74,57.39L316,293.56q-20.57,6.22-41,12.91c-6.83,2.16-13.6,4.47-20.38,6.76s-13.54,4.65-20.3,7l-10.1,3.61q-5.07,1.77-10.08,3.64l-10,3.71c-3.32,1.23-6.69,2.52-9.9,3.78Z" fill="#C46565"></path><path d="M711.7,270.48c-39.92,36.15-102.55,67-169.48,94.19l16.51,15.78h0S659.21,340.49,711.7,270.48Z" fill="#C46565"></path><path d="M214.45,457.18a24.45,24.45,0,0,1,.66-5.43,27,27,0,0,1,1.75-4.9,36.8,36.8,0,0,1,5.26-8,72.69,72.69,0,0,1,13-11.7,206,206,0,0,1,28.63-16.72c19.57-9.69,39.67-17.6,59.8-25.27s40.4-14.82,60.64-22S424.76,349,445,341.87c40.42-14.25,79.8-31.3,119.21-47.95,9.86-4.14,93.82-54.66,102.72-60.67-8.32,6.8-67.53,50.51-99.82,67.22-39.1,18-78.43,35.84-118.64,50.95-20.13,7.5-40.29,14.87-60.43,22.25s-40.27,14.71-60.19,22.46c-10,3.88-19.86,7.85-29.66,12s-19.51,8.46-28.95,13.15A195.93,195.93,0,0,0,242.3,437a64.46,64.46,0,0,0-10.93,9.68c-3,3.49-7.94,11.25-7.92,14.53Z" fill="#C46565"></path><path d="M747.94,163.66l0,0C684.65,74.76,266,93.83,204.16,155.69c-66.94,66.94,29.18,351,29.18,351,0-41.1,160.33-82.31,303.37-139.83,99.17,63.69,228.92,108.54,228.92,108.54S793.59,209.32,747.94,163.66Z" fill="none" stroke="#592d3d" stroke-miterlimit="10" stroke-width="12px"></path><path d="M534.47,361.33c16.1-6.69,32.19-13.37,48.12-20.36l6-2.61,5.95-2.67,6-2.66,5.91-2.76,5.92-2.73c2-.91,3.92-1.88,5.88-2.81,3.91-1.89,7.83-3.75,11.69-5.74q23.34-11.6,45.56-25.15a427.09,427.09,0,0,0,43-29.7c-1.44,1.66-2.86,3.34-4.34,5s-2.9,3.33-4.49,4.84c-3.12,3.11-6.22,6.29-9.55,9.17-1.64,1.49-3.31,2.92-5,4.39s-3.41,2.8-5.12,4.21-3.45,2.76-5.2,4.11l-5.32,4A448.92,448.92,0,0,1,634.62,328c-3.84,2.18-7.74,4.23-11.63,6.29s-7.8,4.1-11.74,6.08l-5.9,3-6,2.87c-4,1.91-7.92,3.84-11.93,5.64q-24,11.06-48.52,20.65Z" fill="#592d3d"></path><path d="M769.08,431.09c-1.42-.23-2.71-.46-4-.72s-2.63-.53-3.94-.82c-2.62-.55-5.2-1.21-7.79-1.86q-7.74-2-15.34-4.43a315.52,315.52,0,0,1-29.83-11.2A306.66,306.66,0,0,1,679.61,398a208.59,208.59,0,0,1-26.43-17.56c2.42,1.09,4.82,2.19,7.19,3.35s4.7,2.34,7.12,3.39c4.77,2.18,9.47,4.49,14.28,6.55q14.25,6.56,28.91,12l7.33,2.71L725.4,411c4.94,1.65,9.9,3.22,14.89,4.67s10,2.83,15,4.13l3.77.91c1.26.32,2.52.62,3.78.89,2.5.57,5.08,1.14,7.49,1.59Z" fill="#592d3d"></path><path d="M615.36,160c-36.49-4.61-73.12-6.62-109.74-7.18s-73.25.43-109.73,3.15c-18.24,1.33-36.45,3.08-54.58,5.35s-36.18,5-54.06,8.36a484.87,484.87,0,0,0-52.83,12.84,211.12,211.12,0,0,0-25,9.44A113.77,113.77,0,0,0,197.84,198a56.05,56.05,0,0,0-9.85,7.45L179.5,197a67.76,67.76,0,0,1,12-9.28,115.9,115.9,0,0,1,12.81-6.8,226.14,226.14,0,0,1,26.49-10A457.87,457.87,0,0,1,285.08,158c36.5-6.53,73.31-10.19,110.17-12.17a1068.52,1068.52,0,0,1,110.62-.17c9.2.53,18.4,1.16,27.59,1.94s18.35,1.78,27.49,2.93A542.75,542.75,0,0,1,615.36,160Z" fill="#592d3d"></path><path d="M210.05,449.36a24.5,24.5,0,0,1,.64-5.37,26.93,26.93,0,0,1,1.71-4.87,36.36,36.36,0,0,1,5.18-8,71.43,71.43,0,0,1,12.89-11.68,202.41,202.41,0,0,1,28.39-16.69c19.41-9.65,39.35-17.52,59.32-25.14s40.08-14.74,60.17-21.86,40.21-14,60.25-21.15c40.11-14.17,80-28.92,119.07-45.49q14.67-6.18,29.14-12.83t28.69-13.79q14.22-7.17,28-15.08t27.08-16.87c-8.25,6.75-16.94,13-25.81,18.91s-18,11.55-27.24,16.89S598.9,276.71,589.4,281.6s-19.15,9.51-28.82,14c-38.79,18-78.6,33.46-118.5,48.49-20,7.46-40,14.78-59.95,22.12s-39.95,14.62-59.72,22.33c-9.87,3.85-19.7,7.81-29.41,11.95s-19.35,8.41-28.71,13.08a191.39,191.39,0,0,0-26.63,15.63,63.16,63.16,0,0,0-10.78,9.64c-3,3.47-4.85,7.2-4.83,10.48Z" fill="#592d3d"></path><path d="M184.48,311.25C198,305.7,211.57,300.86,225.22,296s27.38-9.26,41.18-13.53c27.6-8.52,55.41-16.36,83.45-23.23S406,246,434.45,240.93L445.09,239l5.33-1,5.34-.85L477.15,234c7.13-1.1,14.3-1.92,21.46-2.74s14.33-1.6,21.5-2.31q-10.54,2.44-21.09,4.73c-7,1.55-14.09,2.94-21.08,4.63-14,3.22-28.07,6.22-42,9.66q-42,9.66-83.48,21.17l-20.73,5.79L311.07,281c-13.74,4.12-27.44,8.36-41.07,12.81-6.84,2.15-13.63,4.46-20.42,6.74s-13.57,4.62-20.35,6.94c-13.48,4.75-27,9.69-40.19,14.83Z" fill="#592d3d"></path></g><circle cx="338.9" cy="548.55" r="93.31" fill="white" opacity="0.2"></circle><path d="M744.47,606.82a103.27,103.27,0,0,1-188.33-51.49c-37-14.6-74.43-14.47-114.19.39a103.43,103.43,0,0,1-103,96.13c-32.48,0-76-36.5-71-28.39,14,20.69,47,36.45,72.54,36.45,54.55,0,97.87-39.29,101.56-92.92,39.76-14.85,77.23-15,114.19-.39,3.5,53.82,48.39,93.53,103.07,93.53C704,660.13,729.4,626,744.47,606.82Z" opacity="0.15"></path><path d="M320,648.75,443.07,525.67a93.05,93.05,0,0,0-10-17.27L302.72,638.76A93.1,93.1,0,0,0,320,648.75Z" fill="white" opacity="0.4"></path><circle cx="338.9" cy="548.55" r="93.31" fill="none" stroke="#592d3d" stroke-miterlimit="10" stroke-width="20px"></circle><circle cx="659.21" cy="548.55" r="93.31" fill="none" stroke="#592d3d" stroke-miterlimit="10" stroke-width="20px"></circle><path d="M432.77,548.55c45.2-18.31,89.61-19,133.14,0" fill="none" stroke="#592d3d" stroke-miterlimit="10" stroke-width="20px"></path><path d="M314.7,492.5c2.06,6.5-5.94,11.5-11.94,12.5-6,0-10-4-12-9-1-5,0-10,4-13,5-2,12-4,16.45,1.13A11.66,11.66,0,0,1,314.7,492.5Z" fill="white"></path><path d="M325.37,488.67c-.61,4.33-6.61,4.33-7.61.33,0-3,1-4,3.85-4.1A3.76,3.76,0,0,1,325.37,488.67Z" fill="white"></path><circle cx="659.21" cy="548.55" r="93.31" fill="white" opacity="0.2"></circle><path d="M645.19,640.81,751.47,534.52a94.74,94.74,0,0,0-2.41-11.22L634,638.4A94.31,94.31,0,0,0,645.19,640.81Z" fill="white" opacity="0.4"></path><circle cx="659.21" cy="548.55" r="93.31" fill="none" stroke="#592d3d" stroke-miterlimit="10" stroke-width="20px"></circle><path d="M635,492.5c2.06,6.5-5.94,11.5-11.94,12.5-6,0-10-4-12-9-1-5,0-10,4-13,5-2,12-4,16.45,1.13A11.7,11.7,0,0,1,635,492.5Z" fill="white"></path><path d="M645.69,488.67c-.61,4.33-6.61,4.33-7.61.33,0-3,1-4,3.84-4.1A3.77,3.77,0,0,1,645.69,488.67Z" fill="white"></path></g></svg>